<svg width="730" height="354" viewBox="0 0 730 354" fill="none" xmlns="http://www.w3.org/2000/svg">
<path d="M133.317 164.234C223.836 164.234 242.025 137.003 242.025 108.922V105.944C242.025 73.8201 220.198 58.9284 158.14 57.2265L126.041 56.3756C101.432 55.7373 95.2264 52.5463 95.2264 46.8024V46.3769C95.2264 41.0584 98.8643 38.0801 118.338 38.0801C139.523 38.0801 142.091 45.7387 142.733 50.8444H236.033V49.7807C236.033 22.5502 216.132 0 130.749 0H103.572C26.535 0 2.5679 18.2955 2.5679 48.0788V49.9934C2.5679 74.8838 16.2634 97.8595 81.7449 100.2L115.342 101.263C142.733 102.327 144.873 107.22 144.873 112.538V113.177C144.873 118.921 139.309 124.239 120.477 124.239C98.2223 124.239 95.2264 114.028 95.2264 107.22H0V108.922C0 129.345 8.77367 164.234 105.284 164.234H133.317Z" fill="white"/>
<path d="M410.351 117.857C471.125 117.857 488.458 92.1156 488.458 62.3322V56.801C488.458 27.0177 471.981 2.7656 410.351 2.7656H252.211V161.043H333.528V117.857H410.351ZM333.528 49.1425H390.45C401.578 49.1425 404.787 53.61 404.787 59.3539V59.7794C404.787 65.0978 401.578 69.9908 390.45 69.9908H333.528V49.1425Z" fill="white"/>
<path d="M610.164 95.3066H571.646L590.691 51.4826L610.164 95.3066ZM639.267 161.043H730L650.181 2.7656H535.909L460.798 161.043H542.971L551.317 142.109H630.922L639.267 161.043Z" fill="white"/>
<path d="M133.745 354C239.243 354 252.724 309.112 252.724 286.988V281.456H170.338C169.696 285.286 166.272 303.156 128.823 303.156C93.0865 303.156 86.0247 285.498 86.0247 271.883V269.33C86.0247 255.502 92.4445 239.76 128.823 239.76C165.844 239.76 169.268 256.353 170.338 259.757H252.724V256.566C252.724 233.165 239.243 189.341 133.745 189.341H126.255C16.6914 189.341 2.35391 234.867 2.35391 268.054V274.436C2.35391 307.41 17.5473 354 126.255 354H133.745Z" fill="white"/>
<path d="M264.332 192.532V350.809H457.139V306.134H344.365V292.519H454.999V249.12H344.365V236.781H456.283V192.532H264.332Z" fill="white"/>
</svg>
