<svg width="44" height="48" viewBox="0 0 44 48" fill="none" xmlns="http://www.w3.org/2000/svg">
<path d="M10.6705 12.7075C10.7541 12.8092 10.8169 12.9264 10.8551 13.0524C10.8933 13.1783 10.9063 13.3106 10.8933 13.4416C10.8803 13.5726 10.8416 13.6998 10.7793 13.8158C10.717 13.9317 10.6325 14.0343 10.5305 14.1175C9.30521 15.1262 8.28652 16.3622 7.5305 17.7575C7.44415 17.9154 7.31683 18.047 7.16196 18.1385C7.00709 18.23 6.83039 18.278 6.6505 18.2775C6.48297 18.2784 6.31792 18.2371 6.1705 18.1575C5.9393 18.0307 5.76755 17.8177 5.69263 17.5649C5.61772 17.312 5.64571 17.0398 5.7705 16.8075C6.65293 15.1847 7.83753 13.7455 9.2605 12.5675C9.36217 12.4839 9.47935 12.4212 9.60532 12.3829C9.73129 12.3447 9.86357 12.3317 9.99457 12.3447C10.1256 12.3577 10.2527 12.3965 10.3687 12.4587C10.4847 12.521 10.5873 12.6056 10.6705 12.7075ZM42.0705 40.4175L14.0705 47.9075C13.7463 47.9969 13.4073 48.02 13.074 47.9753C12.7407 47.9306 12.4198 47.8191 12.1305 47.6475C11.8229 47.4721 11.5548 47.235 11.3431 46.951C11.1315 46.6671 10.9808 46.3425 10.9005 45.9975L10.2805 43.5675C10.2227 43.3322 10.1991 43.0897 10.2105 42.8475L7.6805 43.3875H7.4705C7.26209 43.3862 7.05931 43.3198 6.8905 43.1975C6.77705 43.116 6.68195 43.0116 6.61133 42.891C6.54071 42.7704 6.49614 42.6364 6.4805 42.4975L5.5605 34.2175H2.4605C2.31555 34.2192 2.17197 34.1893 2.03971 34.1299C1.90746 34.0706 1.78969 33.9832 1.69457 33.8738C1.59945 33.7644 1.52925 33.6356 1.48883 33.4964C1.44841 33.3572 1.43875 33.2109 1.4605 33.0675L2.7505 24.9975L0.750501 24.4675C0.53048 24.4109 0.336324 24.2809 0.2 24.0992C0.0636771 23.9174 -0.00668491 23.6946 0.000500499 23.4675C0.0619016 19.9556 1.12129 16.5336 3.05493 13.6013C4.98858 10.6689 7.71665 8.3473 10.9205 6.90754L10.6605 6.63754C10.4952 6.46799 10.3954 6.24528 10.3789 6.00905C10.3625 5.77282 10.4303 5.53841 10.5705 5.34754C10.6305 5.25754 16.8205 -2.94246 27.7805 1.13754C39.4305 6.34754 44.0705 17.0575 41.6505 32.9975C41.7998 33.0463 41.9439 33.11 42.0805 33.1875C42.378 33.3621 42.6374 33.5945 42.8436 33.871C43.0497 34.1475 43.1982 34.4626 43.2805 34.7975L43.9105 37.2275C44.0824 37.8943 43.986 38.6019 43.642 39.1983C43.298 39.7948 42.7337 40.2325 42.0705 40.4175ZM12.7205 5.90754C15.3905 8.84754 25.4705 20.9075 27.2405 36.3875L39.6705 33.0575C39.6603 32.9812 39.6603 32.9039 39.6705 32.8275C41.9905 17.8075 37.7205 7.76754 26.9905 2.99754C19.2405 0.0875444 14.2905 4.25754 12.7205 5.90754ZM23.4505 28.3075C20.9921 21.0731 17.215 14.3565 12.3105 8.49754C9.42649 9.64775 6.92689 11.5907 5.10066 14.1018C3.27444 16.6128 2.19617 19.5894 1.9905 22.6875L23.4505 28.3075ZM12.1505 40.4275L25.3005 36.9075C25.0726 34.7594 24.6747 32.6327 24.1105 30.5475L4.7005 25.4575L3.6305 32.2775H6.4605C6.70772 32.276 6.94672 32.3662 7.13139 32.5305C7.31607 32.6949 7.43331 32.9218 7.4605 33.1675L8.3605 41.2375L12.1505 40.4275ZM41.9905 37.7275L41.3705 35.2975C41.3518 35.2199 41.3173 35.147 41.2691 35.0833C41.2209 35.0197 41.1601 34.9666 41.0905 34.9275C41.0057 34.8771 40.9092 34.8495 40.8105 34.8475H40.6705L26.8605 38.5575C26.7394 38.6204 26.6066 38.6579 26.4705 38.6675L12.6705 42.3575C12.5175 42.4039 12.3889 42.5085 12.3122 42.6487C12.2355 42.789 12.2169 42.9537 12.2605 43.1075L12.8805 45.5375C12.8992 45.6152 12.9337 45.6881 12.9819 45.7518C13.0301 45.8154 13.0909 45.8685 13.1605 45.9075C13.2206 45.9463 13.2883 45.9717 13.359 45.982C13.4297 45.9924 13.5018 45.9874 13.5705 45.9675L41.5705 38.4775C41.7225 38.4289 41.8503 38.3245 41.9283 38.1853C42.0062 38.0461 42.0285 37.8825 41.9905 37.7275ZM27.4605 18.2775C27.4605 17.4864 27.6951 16.7131 28.1346 16.0553C28.5741 15.3975 29.1989 14.8848 29.9298 14.582C30.6607 14.2793 31.4649 14.2001 32.2409 14.3544C33.0168 14.5087 33.7295 14.8897 34.2889 15.4491C34.8483 16.0085 35.2293 16.7213 35.3836 17.4972C35.538 18.2731 35.4588 19.0774 35.156 19.8083C34.8533 20.5392 34.3406 21.1639 33.6828 21.6034C33.025 22.0429 32.2516 22.2775 31.4605 22.2775C30.3996 22.2775 29.3822 21.8561 28.6321 21.106C27.8819 20.3558 27.4605 19.3384 27.4605 18.2775ZM29.4605 18.2775C29.4605 18.6731 29.5778 19.0598 29.7976 19.3887C30.0173 19.7176 30.3297 19.9739 30.6951 20.1253C31.0606 20.2767 31.4627 20.3163 31.8507 20.2391C32.2386 20.1619 32.595 19.9715 32.8747 19.6918C33.1544 19.4121 33.3449 19.0557 33.4221 18.6677C33.4992 18.2798 33.4596 17.8776 33.3083 17.5122C33.1569 17.1467 32.9005 16.8344 32.5716 16.6146C32.2427 16.3948 31.8561 16.2775 31.4605 16.2775C30.9301 16.2775 30.4214 16.4883 30.0463 16.8633C29.6712 17.2384 29.4605 17.7471 29.4605 18.2775Z" fill="white"/>
</svg>
