<svg width="289" height="386" viewBox="0 0 289 386" fill="none" xmlns="http://www.w3.org/2000/svg">
<path d="M85.6186 102.602C86.2896 103.417 86.793 104.358 87.0998 105.368C87.4066 106.379 87.5108 107.441 87.4064 108.492C87.302 109.543 86.9911 110.563 86.4916 111.494C85.992 112.424 85.3136 113.247 84.4952 113.915C74.6637 122.008 66.4898 131.926 60.4236 143.122C59.7308 144.388 58.7092 145.444 57.4665 146.179C56.2238 146.913 54.8061 147.298 53.3627 147.295C52.0184 147.301 50.6941 146.97 49.5112 146.332C47.6561 145.314 46.278 143.605 45.6769 141.576C45.0758 139.547 45.3003 137.363 46.3017 135.499C53.3821 122.478 62.8872 110.93 74.3049 101.478C75.1207 100.807 76.0609 100.304 77.0717 99.9971C78.0825 99.6903 79.1439 99.5861 80.195 99.6905C81.2462 99.7949 82.2663 100.106 83.197 100.605C84.1278 101.105 84.9507 101.783 85.6186 102.602ZM337.568 324.943L112.9 385.041C110.298 385.759 107.579 385.943 104.904 385.585C102.229 385.227 99.6543 384.332 97.3334 382.955C94.8649 381.547 92.714 379.645 91.0156 377.366C89.3173 375.088 88.1081 372.483 87.464 369.716L82.4893 350.218C82.0252 348.329 81.836 346.383 81.9276 344.441L61.6272 348.773H59.9422C58.27 348.763 56.6429 348.23 55.2884 347.249C54.3781 346.595 53.615 345.757 53.0484 344.789C52.4817 343.822 52.1241 342.746 51.9986 341.632L44.6167 275.195H19.7427C18.5796 275.208 17.4276 274.968 16.3664 274.492C15.3052 274.016 14.3602 273.314 13.597 272.437C12.8338 271.559 12.2705 270.526 11.9462 269.409C11.6219 268.292 11.5443 267.117 11.7188 265.967L22.0696 201.215L6.02191 196.962C4.2565 196.507 2.69861 195.465 1.60477 194.006C0.510935 192.548 -0.0536387 190.76 0.00401593 188.938C0.49669 160.759 8.99709 133.301 24.5124 109.773C40.0276 86.2441 61.9173 67.6157 87.6245 56.0633L85.5383 53.8969C84.2119 52.5364 83.4113 50.7494 83.279 48.8539C83.1468 46.9585 83.6915 45.0776 84.8162 43.5461C85.2976 42.824 134.965 -22.9716 222.907 9.76567C316.385 51.57 353.615 137.505 334.198 265.406C335.396 265.797 336.552 266.308 337.648 266.93C340.035 268.331 342.117 270.195 343.771 272.414C345.424 274.633 346.616 277.161 347.276 279.849L352.331 299.347C353.711 304.696 352.938 310.374 350.177 315.16C347.417 319.946 342.889 323.458 337.568 324.943ZM102.067 48.0395C123.491 71.6296 204.372 168.397 218.574 292.607L318.31 265.887C318.229 265.275 318.229 264.654 318.31 264.042C336.926 143.523 302.664 62.9638 216.568 24.69C154.383 1.34063 114.665 34.8001 102.067 48.0395ZM188.163 227.774C168.437 169.725 138.131 115.832 98.7777 68.8212C75.6368 78.0504 55.5803 93.6402 40.927 113.789C26.2736 133.937 17.6217 157.821 15.9715 182.68L188.163 227.774ZM97.4939 325.023L203.008 296.779C201.179 279.543 197.986 262.479 193.459 245.747L37.7161 204.906L29.1306 259.628H51.8381C53.8217 259.616 55.7395 260.34 57.2213 261.658C58.7031 262.977 59.6438 264.798 59.862 266.77L67.0834 331.522L97.4939 325.023ZM336.926 303.358L331.951 283.861C331.801 283.238 331.524 282.653 331.137 282.142C330.751 281.631 330.263 281.205 329.704 280.892C329.024 280.487 328.249 280.266 327.458 280.25H326.334L215.525 310.018C214.553 310.523 213.488 310.823 212.395 310.901L101.666 340.509C100.439 340.881 99.4063 341.72 98.7911 342.845C98.1759 343.971 98.027 345.293 98.3765 346.527L103.351 366.025C103.501 366.648 103.778 367.233 104.165 367.744C104.551 368.255 105.039 368.68 105.598 368.994C106.08 369.304 106.623 369.508 107.191 369.591C107.758 369.674 108.337 369.635 108.888 369.475L333.556 309.376C334.775 308.986 335.801 308.148 336.426 307.031C337.052 305.915 337.23 304.602 336.926 303.358ZM220.339 147.295C220.339 140.947 222.221 134.741 225.748 129.463C229.275 124.185 234.287 120.071 240.152 117.642C246.017 115.213 252.47 114.577 258.696 115.816C264.922 117.054 270.641 120.111 275.129 124.6C279.618 129.088 282.675 134.807 283.913 141.033C285.152 147.259 284.516 153.712 282.087 159.577C279.658 165.442 275.544 170.454 270.266 173.981C264.988 177.508 258.782 179.39 252.435 179.39C243.922 179.39 235.759 176.008 229.74 169.989C223.721 163.97 220.339 155.807 220.339 147.295ZM236.387 147.295C236.387 150.468 237.328 153.571 239.091 156.21C240.855 158.849 243.361 160.906 246.293 162.121C249.226 163.335 252.452 163.653 255.565 163.034C258.678 162.415 261.538 160.886 263.782 158.642C266.026 156.398 267.555 153.538 268.174 150.425C268.793 147.312 268.475 144.086 267.261 141.153C266.046 138.221 263.989 135.715 261.35 133.951C258.711 132.188 255.608 131.247 252.435 131.247C248.178 131.247 244.097 132.938 241.087 135.947C238.078 138.957 236.387 143.038 236.387 147.295Z" fill="black"/>
</svg>
